<?xml version="1.0" standalone="no"?>
<!DOCTYPE svg PUBLIC "-//W3C//DTD SVG 20010904//EN"
 "http://www.w3.org/TR/2001/REC-SVG-20010904/DTD/svg10.dtd">
<svg version="1.0" xmlns="http://www.w3.org/2000/svg"
 width="294.000000pt" height="294.000000pt" viewBox="0 0 294.000000 294.000000"
 preserveAspectRatio="xMidYMid meet">
<metadata>
Created by potrace 1.11, written by Peter Selinger 2001-2013
</metadata>
<g transform="translate(0.000000,294.000000) scale(0.100000,-0.100000)"
fill="#000000" stroke="none">
<path d="M1300 2880 c-625 -87 -1093 -527 -1226 -1150 -25 -119 -25 -401 0
-520 47 -222 137 -424 262 -590 212 -280 506 -466 857 -542 146 -31 408 -31
554 0 570 123 988 540 1114 1113 34 150 34 408 0 558 -126 571 -547 993 -1109
1111 -111 24 -350 34 -452 20z m595 -461 c210 -53 250 -406 68 -600 -111 -119
-237 -130 -334 -30 -77 80 -105 206 -75 334 36 153 119 255 239 293 53 16 50
16 102 3z m-720 -23 c28 -12 70 -44 93 -70 151 -164 139 -468 -22 -561 -60
-34 -98 -39 -159 -21 -76 22 -138 80 -183 171 -32 66 -37 86 -42 169 -8 154
40 260 140 310 64 32 108 33 173 2z m-498 -511 c132 -39 251 -236 228 -378 -8
-50 -39 -124 -63 -150 -29 -33 -89 -57 -139 -57 -178 0 -331 231 -283 428 19
80 64 131 139 158 47 17 58 17 118 -1z m1765 -24 c140 -89 125 -339 -28 -481
-59 -54 -116 -80 -182 -80 -184 -1 -266 206 -162 411 79 154 254 225 372 150z
m-927 -202 c124 -23 173 -64 297 -247 61 -91 129 -175 201 -250 135 -140 178
-219 185 -342 6 -101 -14 -163 -75 -230 -60 -67 -129 -102 -214 -108 -54 -4
-92 2 -210 33 -213 55 -271 56 -454 9 -199 -51 -294 -53 -374 -9 -226 125
-209 452 33 659 31 26 114 125 186 221 128 171 184 226 255 253 65 24 92 26
170 11z"/>
</g>
</svg>
